<svg width="1000" height="1000" viewBox="0 0 1000 1000" fill="none" xmlns="http://www.w3.org/2000/svg">
<g clip-path="url(#clip0_1195_740)">
<rect width="1000" height="1000" fill="white"/>
<mask id="mask0_1195_740" style="mask-type:alpha" maskUnits="userSpaceOnUse" x="156" y="160" width="686" height="686">
<path d="M833.516 508.629H512.227C507.858 508.629 504.308 512.179 504.308 516.548V837.837C504.308 842.315 508.022 845.865 512.5 845.756C692.244 841.469 837.148 696.565 841.435 516.821C841.544 512.343 837.994 508.629 833.516 508.629Z" fill="#231F20"/>
<path d="M485.223 160.582C305.506 164.868 160.574 309.772 156.288 489.517C156.178 493.994 159.728 497.708 164.206 497.708H485.496C489.864 497.708 493.414 494.158 493.414 489.79V168.5C493.414 164.022 489.7 160.472 485.223 160.582Z" fill="#231F20"/>
<path d="M833.544 497.708C838.022 497.708 841.571 493.994 841.462 489.517C837.148 309.772 692.244 164.868 512.5 160.582C508.022 160.472 504.308 164.022 504.308 168.5V489.79C504.308 494.158 507.858 497.708 512.227 497.708H833.544Z" fill="#231F20"/>
<path d="M485.496 508.629H164.206C159.728 508.629 156.178 512.343 156.288 516.821C160.574 696.565 305.506 841.469 485.223 845.756C489.7 845.865 493.414 842.315 493.414 837.837V516.548C493.414 512.179 489.864 508.629 485.496 508.629Z" fill="#231F20"/>
</mask>
<g mask="url(#mask0_1195_740)">
<path d="M493.413 729.221V837.838C493.413 842.316 489.7 845.865 485.222 845.756C305.504 841.442 160.572 696.537 156.286 516.792C156.176 512.314 159.726 508.601 164.204 508.601H272.848C272.848 630.433 371.608 729.193 493.413 729.193V729.221Z" fill="#058AE0"/>
<path d="M724.926 508.628H833.543C838.021 508.628 841.571 512.342 841.462 516.82C837.175 696.565 692.27 841.469 512.525 845.756C508.047 845.865 504.334 842.316 504.334 837.838V729.221C626.166 729.221 724.926 630.461 724.926 508.628Z" fill="#8EC158"/>
<g filter="url(#filter0_d_1195_740)">
<path d="M727.068 654.559C728.337 655.349 729.634 655.546 730.987 655.151C732.34 654.757 734.06 653.629 736.118 651.768C739.05 649.09 741.814 647.313 744.379 646.467C746.945 645.622 749.398 645.932 751.766 647.398C754.191 648.92 755.6 651.148 755.967 654.08C756.334 657.012 755.544 660.001 753.655 663.017C751.597 666.288 749.088 668.346 746.127 669.192C743.167 670.038 740.404 669.643 737.866 667.951L737.754 667.839L740.799 662.989C742.377 663.976 743.984 664.258 745.592 663.779C747.199 663.299 748.552 662.2 749.652 660.452C750.723 658.76 751.146 657.181 750.92 655.772C750.695 654.362 749.933 653.234 748.665 652.445C747.509 651.712 746.24 651.627 744.83 652.163C743.449 652.698 741.673 653.911 739.53 655.828C736.654 658.45 733.947 660.085 731.382 660.79C728.816 661.495 726.335 661.1 723.967 659.606C721.457 658.027 720.076 655.8 719.822 652.896C719.568 649.992 720.442 646.947 722.444 643.761C724.361 640.688 726.871 638.517 729.916 637.276C732.989 636.007 735.977 636.346 738.91 638.291L739.022 638.404L735.977 643.253C734.173 642.126 732.397 641.872 730.705 642.548C729.013 643.225 727.575 644.466 726.448 646.27C725.32 648.046 724.841 649.682 724.982 651.148C725.123 652.614 725.827 653.742 727.096 654.559H727.068Z" fill="white"/>
<path d="M734.455 684.953L729.323 681.062L726.448 684.84L722.952 682.161L725.827 678.383L714.183 669.53C713.309 668.882 712.548 668.6 711.899 668.685C711.251 668.769 710.687 669.136 710.208 669.756C710.01 670.01 709.841 670.292 709.7 670.574C709.559 670.855 709.447 671.137 709.362 671.419L705.499 669.277C705.584 668.713 705.781 668.092 706.063 667.444C706.373 666.795 706.74 666.175 707.191 665.583C708.516 663.835 710.067 662.876 711.843 662.651C713.619 662.425 715.593 663.158 717.792 664.822L729.436 673.675L731.889 670.461L735.385 673.139L732.932 676.353L738.064 680.244L734.483 684.953H734.455Z" fill="white"/>
<path d="M695.49 679.483C698.056 676.579 700.988 675.141 704.259 675.141C707.529 675.141 710.631 676.41 713.535 679.004L714.268 679.652C717.172 682.246 718.835 685.178 719.286 688.477C719.737 691.776 718.807 694.708 716.495 697.273C714.127 699.924 711.533 701.221 708.657 701.136C705.81 701.051 702.99 699.783 700.255 697.33L697.859 695.187L708.742 682.951L708.685 682.838C707.022 681.428 705.33 680.695 703.582 680.611C701.862 680.526 700.255 681.287 698.817 682.894C697.746 684.107 696.957 685.291 696.477 686.419C695.998 687.546 695.688 688.759 695.547 689.999L691.346 688.872C691.346 687.518 691.684 686.024 692.361 684.389C693.038 682.753 694.053 681.118 695.519 679.483H695.49ZM712.886 694.087C713.929 692.931 714.324 691.635 714.099 690.197C713.873 688.759 713.168 687.349 711.984 685.996L711.871 685.939L704.992 693.693L705.33 694.003C706.599 695.131 707.896 695.751 709.193 695.864C710.49 695.976 711.73 695.384 712.858 694.116L712.886 694.087Z" fill="white"/>
<path d="M674.683 700.967C675.303 701.305 675.867 701.672 676.403 702.038C676.939 702.405 677.446 702.828 677.897 703.251C677.644 701.784 677.728 700.318 678.123 698.796C678.546 697.273 679.335 695.948 680.548 694.82C682.578 692.931 684.607 692.029 686.666 692.057C688.724 692.086 690.585 693.016 692.276 694.849C694.024 696.738 694.645 698.88 694.109 701.305C693.601 703.73 691.994 706.183 689.288 708.692L685.904 711.85L687.483 713.57C688.414 714.585 689.457 715.12 690.585 715.12C691.712 715.12 692.84 714.641 693.968 713.598C694.955 712.667 695.519 711.709 695.688 710.694C695.857 709.679 695.575 708.805 694.87 708.044L699.043 704.125L699.156 704.209C700.65 705.675 701.242 707.649 700.876 710.186C700.509 712.724 699.184 715.064 696.844 717.235C694.588 719.321 692.22 720.449 689.767 720.59C687.314 720.731 685.087 719.716 683.085 717.573L675.078 708.946C674.345 708.156 673.555 707.423 672.766 706.775C671.976 706.126 671.131 705.591 670.228 705.083L674.655 700.995L674.683 700.967ZM682.916 699.162C681.816 700.177 681.083 701.362 680.717 702.715C680.35 704.096 680.35 705.252 680.717 706.239L683.367 709.115L686.835 705.901C688.104 704.717 688.808 703.476 688.949 702.207C689.09 700.91 688.752 699.839 687.963 698.993C687.286 698.26 686.497 697.894 685.594 697.894C684.692 697.894 683.818 698.345 682.888 699.191L682.916 699.162Z" fill="white"/>
<path d="M675.585 717.46C678.123 720.844 679.448 724.114 679.561 727.272C679.673 730.43 678.405 732.995 675.811 734.969C674.655 735.843 673.471 736.379 672.202 736.604C670.933 736.83 669.665 736.745 668.339 736.407L677.108 748.051L672.371 751.632L649.365 721.126L653.227 718.222L655.821 720.477C655.737 718.955 655.99 717.573 656.554 716.333C657.118 715.092 658.049 713.964 659.289 713.034C661.883 711.089 664.618 710.496 667.494 711.286C670.369 712.075 672.963 714.021 675.275 717.094L675.585 717.517V717.46ZM670.539 720.618C669.072 718.673 667.522 717.376 665.887 716.784C664.251 716.192 662.644 716.502 661.009 717.742C659.994 718.504 659.317 719.349 658.951 720.308C658.584 721.267 658.471 722.31 658.641 723.438L665.605 732.657C666.648 733.108 667.663 733.277 668.706 733.193C669.749 733.108 670.736 732.685 671.695 731.952C673.302 730.74 673.978 729.161 673.725 727.216C673.471 725.27 672.512 723.212 670.849 721.013L670.539 720.59V720.618Z" fill="white"/>
<path d="M642.626 737.901L640.737 735.956L640.625 736.04L645.305 754.874L639.751 758.257L633.238 726.483C632.871 724.537 632.899 722.676 633.322 720.9C633.717 719.124 634.929 717.63 636.931 716.417C637.354 716.164 637.833 715.938 638.369 715.712C638.905 715.487 639.412 715.318 639.948 715.149L641.781 719.434C641.583 719.519 641.329 719.66 640.963 719.829C640.625 719.998 640.343 720.139 640.173 720.252C639.243 720.816 638.707 721.577 638.538 722.535C638.369 723.494 638.369 724.509 638.538 725.524L638.961 728.09L660.812 745.429L655.257 748.812L642.683 737.873L642.626 737.901Z" fill="white"/>
</g>
<path d="M833.518 497.707H724.901C724.901 375.874 626.141 277.114 504.309 277.114V168.497C504.309 164.019 508.022 160.47 512.5 160.579C692.245 164.866 837.149 309.77 841.436 489.515C841.545 493.993 837.996 497.707 833.518 497.707Z" fill="#FFB71B"/>
<path d="M493.413 168.497V277.114C371.608 277.114 272.848 375.874 272.848 497.707H164.204C159.726 497.707 156.176 493.993 156.286 489.515C160.572 309.77 305.504 164.866 485.222 160.579C489.7 160.47 493.413 164.019 493.413 168.497Z" fill="#DC2B2B"/>
<g filter="url(#filter1_d_1195_740)">
<path d="M493.413 277.115V489.789C493.413 494.158 489.863 497.707 485.494 497.707H272.848C272.848 375.875 371.608 277.115 493.413 277.115Z" fill="#FF5A65"/>
</g>
<g filter="url(#filter2_d_1195_740)">
<path d="M724.926 497.707H512.252C507.884 497.707 504.334 494.158 504.334 489.789V277.115C626.166 277.115 724.926 375.875 724.926 497.707Z" fill="#FFCF52"/>
</g>
<g filter="url(#filter3_d_1195_740)">
<path d="M512.252 508.628H724.926C724.926 630.461 626.166 729.221 504.334 729.221V516.547C504.334 512.178 507.884 508.628 512.252 508.628Z" fill="#B6CE98"/>
</g>
<g filter="url(#filter4_d_1195_740)">
<path d="M493.413 516.547V729.221C371.608 729.221 272.848 630.461 272.848 508.628H485.494C489.863 508.628 493.413 512.178 493.413 516.547Z" fill="#37A1E6"/>
</g>
<path d="M493.413 277.115V489.789C493.413 494.158 489.863 497.707 485.494 497.707H272.848C272.848 375.875 371.608 277.115 493.413 277.115Z" fill="white" fill-opacity="0.17"/>
<path d="M724.926 497.707H512.252C507.884 497.707 504.334 494.158 504.334 489.789V277.115C626.166 277.115 724.926 375.875 724.926 497.707Z" fill="white" fill-opacity="0.17"/>
<path d="M512.252 508.628H724.926C724.926 630.461 626.166 729.221 504.334 729.221V516.547C504.334 512.178 507.884 508.628 512.252 508.628Z" fill="white" fill-opacity="0.17"/>
<path d="M493.413 516.547V729.221C371.608 729.221 272.848 630.461 272.848 508.628H485.494C489.863 508.628 493.413 512.178 493.413 516.547Z" fill="white" fill-opacity="0.17"/>
<g filter="url(#filter5_d_1195_740)">
<path d="M253.473 400.271L221.188 384.726L226.314 374.013C228.296 369.892 231.156 367.193 234.951 365.829C238.746 364.493 242.654 364.777 246.676 366.71L251.575 369.068C255.625 371.001 258.287 373.871 259.59 377.679C260.893 381.487 260.581 385.437 258.599 389.529L253.473 400.242V400.271ZM228.098 381.402L251.774 392.797L254.294 387.511C255.54 384.925 255.654 382.425 254.634 380.066C253.614 377.707 251.717 375.86 248.97 374.524L244.014 372.137C241.295 370.83 238.69 370.518 236.197 371.2C233.705 371.882 231.864 373.53 230.618 376.116L228.098 381.402Z" fill="white"/>
<path d="M255.682 365.147C252.312 363.015 250.131 360.373 249.168 357.161C248.177 353.95 248.687 350.768 250.698 347.556C252.737 344.317 255.399 342.441 258.712 341.958C262.026 341.475 265.339 342.271 268.709 344.402L269.134 344.686C272.533 346.817 274.713 349.489 275.676 352.671C276.668 355.854 276.129 359.065 274.119 362.277C272.108 365.516 269.446 367.363 266.132 367.875C262.847 368.358 259.505 367.562 256.135 365.431L255.71 365.147H255.682ZM259.307 360.344C261.516 361.737 263.583 362.447 265.481 362.447C267.407 362.447 268.908 361.538 270.069 359.747C271.173 357.986 271.315 356.224 270.494 354.462C269.672 352.7 268.143 351.137 265.962 349.744L265.538 349.46C263.385 348.096 261.346 347.414 259.392 347.443C257.438 347.443 255.909 348.352 254.776 350.142C253.671 351.904 253.53 353.666 254.379 355.428C255.229 357.19 256.73 358.724 258.882 360.088L259.307 360.373V360.344Z" fill="white"/>
<path d="M265.226 326.755L268.115 328.744C267.69 327.266 267.633 325.789 267.945 324.339C268.256 322.89 268.964 321.497 270.069 320.162C271.173 318.826 272.448 317.917 273.836 317.462C275.252 317.007 276.753 317.036 278.367 317.576C277.744 315.984 277.545 314.422 277.772 312.859C277.999 311.296 278.678 309.789 279.811 308.397C281.51 306.323 283.578 305.299 286.013 305.299C288.421 305.299 291.083 306.493 294 308.909L306.206 319.082L302.383 323.686L290.148 313.512C288.364 312.006 286.835 311.267 285.617 311.267C284.399 311.267 283.295 311.864 282.303 313.057C281.482 314.052 281.057 315.104 281.029 316.24C281.001 317.377 281.284 318.457 281.935 319.508C282.133 319.65 282.303 319.792 282.445 319.906C282.587 320.02 282.728 320.105 282.841 320.219L296.124 331.273L292.3 335.877L280.066 325.703C278.338 324.254 276.837 323.544 275.591 323.515C274.317 323.515 273.184 324.083 272.221 325.277C271.457 326.215 270.975 327.153 270.805 328.119C270.635 329.057 270.692 330.023 271.06 330.932L286.07 343.436L282.247 348.039L261.771 330.989L265.254 326.783L265.226 326.755Z" fill="white"/>
<path d="M291.677 287.539L287.401 291.744L283.719 287.993L287.995 283.787L291.649 287.539H291.677ZM314.872 311.267L310.595 315.473L291.96 296.405L296.237 292.199L314.872 311.267Z" fill="white"/>
<path d="M306.036 283.105L308.783 285.833C308.585 284.242 308.726 282.708 309.236 281.258C309.746 279.809 310.652 278.559 311.926 277.479C314.05 275.688 316.259 274.95 318.525 275.262C320.819 275.575 323.113 277.109 325.464 279.894L336.14 292.597L331.581 296.462L320.932 283.787C319.601 282.196 318.355 281.344 317.166 281.201C315.976 281.059 314.787 281.514 313.541 282.565C312.549 283.39 311.87 284.299 311.473 285.265C311.077 286.231 310.935 287.226 311.048 288.249L323.594 303.197L319.035 307.061L301.873 286.629L306.036 283.105Z" fill="white"/>
<path d="M353.501 280.406C352.935 279.979 352.425 279.525 351.943 279.07C351.462 278.615 351.037 278.132 350.641 277.649C350.669 279.127 350.386 280.605 349.734 282.082C349.111 283.532 348.092 284.754 346.732 285.691C344.438 287.254 342.286 287.88 340.247 287.539C338.208 287.198 336.509 286.004 335.093 283.93C333.648 281.798 333.337 279.553 334.215 277.223C335.093 274.893 337.047 272.676 340.077 270.573L343.929 267.93L342.598 265.998C341.805 264.833 340.87 264.179 339.737 263.98C338.633 263.782 337.443 264.123 336.169 265.003C335.036 265.771 334.328 266.652 334.045 267.646C333.733 268.641 333.903 269.55 334.47 270.403L329.74 273.671L329.627 273.557C328.352 271.88 328.069 269.806 328.805 267.334C329.542 264.861 331.213 262.73 333.846 260.911C336.395 259.149 338.916 258.382 341.38 258.61C343.844 258.837 345.911 260.172 347.554 262.616L354.237 272.42C354.86 273.33 355.512 274.154 356.191 274.921C356.871 275.66 357.636 276.342 358.457 276.967L353.473 280.406H353.501ZM345.033 281.002C346.279 280.15 347.157 279.07 347.752 277.763C348.347 276.456 348.488 275.291 348.262 274.268L346.053 271L342.144 273.699C340.7 274.694 339.822 275.802 339.511 277.081C339.171 278.36 339.341 279.468 340.02 280.434C340.587 281.287 341.323 281.77 342.201 281.883C343.079 281.997 344.042 281.713 345.061 281.002H345.033Z" fill="white"/>
<path d="M354.379 248.607L356.503 251.818C356.616 250.198 357.069 248.749 357.862 247.442C358.655 246.134 359.788 245.083 361.233 244.287C363.668 242.952 365.962 242.667 368.143 243.435C370.323 244.202 372.278 246.163 374.005 249.374L381.906 263.98L376.667 266.851L368.794 252.301C367.803 250.482 366.755 249.374 365.622 249.004C364.489 248.635 363.215 248.834 361.799 249.601C360.666 250.198 359.816 250.965 359.222 251.818C358.627 252.67 358.287 253.637 358.202 254.66L367.491 271.852L362.252 274.722L349.564 251.249L354.351 248.635L354.379 248.607Z" fill="white"/>
<path d="M380.377 228.43L382.983 234.369L387.344 232.437L389.128 236.501L384.767 238.433L390.686 251.931C391.139 252.954 391.649 253.551 392.272 253.807C392.895 254.034 393.574 254.006 394.282 253.693C394.594 253.551 394.877 253.409 395.132 253.239C395.387 253.068 395.642 252.869 395.84 252.67L398.191 256.421C397.851 256.876 397.369 257.331 396.803 257.757C396.237 258.183 395.585 258.553 394.905 258.837C392.895 259.718 391.054 259.832 389.383 259.149C387.712 258.467 386.324 256.876 385.22 254.347L379.301 240.849L375.591 242.497L373.807 238.433L377.517 236.785L374.911 230.846L380.349 228.43H380.377Z" fill="white"/>
</g>
<g filter="url(#filter6_d_1195_740)">
<path d="M605.766 259.456L600.27 257.096L614.293 224.005L619.789 226.365L605.766 259.456Z" fill="white"/>
<path d="M628.798 240.721L627.325 244.303C628.713 243.479 630.186 243.053 631.716 242.996C633.246 242.939 634.748 243.28 636.193 244.048C638.657 245.327 640.187 247.089 640.754 249.335C641.349 251.581 640.81 254.31 639.111 257.523L631.461 272.249L626.164 269.491L633.784 254.794C634.748 252.946 635.059 251.467 634.748 250.302C634.436 249.165 633.558 248.198 632.113 247.459C630.98 246.862 629.875 246.578 628.827 246.578C627.778 246.578 626.815 246.834 625.909 247.317L616.9 264.658L611.602 261.901L623.897 238.191L628.742 240.721H628.798Z" fill="white"/>
<path d="M637.439 276.03L649.253 257.182L645.825 255.021L648.176 251.268L651.604 253.429L653.247 250.785C654.805 248.283 656.704 246.805 658.885 246.293C661.095 245.81 663.418 246.293 665.854 247.857C666.336 248.17 666.817 248.511 667.271 248.909C667.724 249.307 668.206 249.762 668.744 250.302L665.769 253.912C665.514 253.685 665.259 253.429 664.948 253.173C664.636 252.917 664.268 252.661 663.899 252.434C662.795 251.752 661.775 251.524 660.84 251.809C659.905 252.093 659.055 252.804 658.318 253.998L656.675 256.641L660.868 259.285L658.517 263.038L654.324 260.394L642.51 279.242L637.439 276.058V276.03Z" fill="white"/>
<path d="M655.4 288.084L650.528 284.615L672.795 253.23L677.668 256.698L655.4 288.084Z" fill="white"/>
<path d="M675.487 299.029C673.957 299.597 672.427 299.768 670.954 299.54C669.481 299.313 668.092 298.659 666.789 297.579C664.579 295.759 663.474 293.599 663.446 291.125C663.418 288.652 664.664 285.866 667.186 282.824L677.13 270.799L681.719 274.608L671.719 286.662C670.104 288.624 669.254 290.216 669.226 291.41C669.197 292.604 669.764 293.712 670.982 294.707C672.087 295.646 673.192 296.214 674.268 296.442C675.345 296.669 676.421 296.584 677.47 296.186L689.765 281.346L694.355 285.184L677.328 305.738L673.362 302.44L675.458 299.057L675.487 299.029Z" fill="white"/>
<path d="M688.887 317.905C686.167 315.119 684.892 312.077 685.119 308.808C685.317 305.51 686.819 302.497 689.595 299.739L690.303 299.057C693.08 296.299 696.139 294.821 699.482 294.594C702.825 294.366 705.715 295.503 708.123 298.005C710.644 300.564 711.749 303.264 711.466 306.136C711.183 309.007 709.738 311.736 707.103 314.323L704.808 316.597L693.25 304.828L693.136 304.885C691.635 306.477 690.757 308.126 690.558 309.86C690.332 311.594 691.011 313.243 692.541 314.806C693.675 315.972 694.808 316.825 695.913 317.422C697.018 317.99 698.207 318.388 699.454 318.587L698.037 322.738C696.706 322.624 695.204 322.198 693.618 321.43C692.003 320.663 690.445 319.497 688.915 317.934L688.887 317.905ZM704.723 301.36C703.618 300.251 702.344 299.739 700.899 299.881C699.454 299.995 697.981 300.621 696.536 301.729L696.479 301.843L703.788 309.291L704.128 308.95C705.347 307.756 706.055 306.505 706.253 305.169C706.452 303.861 705.942 302.582 704.723 301.36Z" fill="white"/>
<path d="M723.421 315.574L720.645 318.246C722.26 318.076 723.761 318.246 725.178 318.815C726.594 319.383 727.841 320.293 728.861 321.601C730.589 323.761 731.297 326.007 730.929 328.282C730.561 330.556 728.974 332.859 726.141 335.133L713.223 345.538L709.483 340.875L722.345 330.499C723.96 329.191 724.838 327.969 725.036 326.775C725.235 325.581 724.781 324.387 723.761 323.108C722.968 322.113 722.09 321.402 721.127 320.975C720.163 320.549 719.172 320.378 718.152 320.492L702.967 332.745L699.227 328.083L719.993 311.338L723.421 315.602V315.574Z" fill="white"/>
<path d="M747.814 337.606L742.459 341.245L745.122 345.225L741.468 347.727L738.805 343.747L726.623 352.019C725.716 352.645 725.206 353.27 725.064 353.924C724.951 354.578 725.093 355.232 725.546 355.886C725.744 356.17 725.943 356.397 726.141 356.625C726.368 356.852 726.594 357.051 726.821 357.222L723.563 360.207C723.053 359.951 722.543 359.553 722.005 359.07C721.466 358.586 721.013 358.018 720.588 357.392C719.342 355.573 718.917 353.754 719.285 351.991C719.653 350.228 720.957 348.551 723.251 347.016L735.433 338.743L733.167 335.36L736.822 332.859L739.088 336.242L744.442 332.603L747.785 337.549L747.814 337.606Z" fill="white"/>
<path d="M728.436 369.048L725.348 363.903L748.154 350.143L751.242 355.289L728.436 369.048ZM756.823 351.934L753.735 346.789L758.211 344.088L761.299 349.233L756.794 351.934H756.823Z" fill="white"/>
<path d="M738.72 388.38C739.23 387.896 739.74 387.442 740.25 387.015C740.76 386.589 741.298 386.219 741.836 385.906C740.363 385.764 738.946 385.253 737.587 384.428C736.227 383.604 735.179 382.438 734.414 380.96C733.167 378.487 732.827 376.241 733.45 374.279C734.045 372.318 735.462 370.754 737.7 369.617C739.995 368.451 742.233 368.451 744.443 369.617C746.652 370.782 748.579 373.028 750.25 376.326L752.347 380.477L754.443 379.425C755.69 378.799 756.483 377.946 756.823 376.866C757.163 375.786 756.993 374.535 756.285 373.17C755.661 371.948 754.896 371.124 753.962 370.697C753.027 370.271 752.092 370.299 751.157 370.754L748.55 365.608L748.664 365.523C750.477 364.471 752.573 364.471 754.925 365.523C757.276 366.575 759.174 368.537 760.619 371.408C762.007 374.194 762.432 376.781 761.894 379.197C761.356 381.614 759.769 383.49 757.135 384.826L746.567 390.171C745.576 390.654 744.669 391.223 743.848 391.791C743.026 392.388 742.233 393.042 741.525 393.781L738.805 388.351L738.72 388.38ZM739.23 379.908C739.91 381.244 740.845 382.296 742.063 383.035C743.281 383.774 744.414 384.087 745.462 384.002L748.975 382.211L746.822 377.946C746.029 376.383 745.037 375.359 743.819 374.876C742.601 374.393 741.468 374.393 740.448 374.933C739.541 375.388 738.975 376.042 738.72 376.923C738.465 377.804 738.663 378.771 739.201 379.908H739.23Z" fill="white"/>
<path d="M745.519 403.959L743.224 398.415L778.666 383.604L780.96 389.147L745.519 403.959Z" fill="white"/>
</g>
<g filter="url(#filter7_d_1195_740)">
<path d="M377.122 753.061V752.919C378.485 749.566 380.729 747.349 383.824 746.241C386.92 745.132 390.356 745.416 394.133 747.008C397.967 748.656 400.523 751.271 401.801 754.909C403.079 758.518 402.852 762.355 401.12 766.391L398.422 772.672C396.689 776.707 394.105 779.521 390.64 781.113C387.176 782.704 383.541 782.704 379.735 781.084C375.844 779.407 373.232 777.134 371.84 774.178C370.449 771.251 370.534 768.068 372.067 764.629L372.181 764.515L377.52 766.789C376.583 769.005 376.441 770.938 377.151 772.615C377.861 774.292 379.337 775.627 381.666 776.622C383.91 777.588 386.04 777.446 388.113 776.224C390.186 775.002 391.776 773.041 392.941 770.341L395.639 764.003C396.803 761.275 397.115 758.717 396.547 756.387C395.979 754.056 394.531 752.379 392.231 751.385C389.987 750.418 388.028 750.276 386.352 750.958C384.676 751.64 383.37 753.09 382.405 755.307L377.094 753.033L377.122 753.061Z" fill="white"/>
<path d="M372.067 752.522C370.108 755.989 367.552 758.291 364.4 759.428C361.247 760.565 358.038 760.195 354.744 758.319C351.421 756.415 349.433 753.829 348.78 750.561C348.127 747.264 348.78 743.91 350.768 740.443L351.024 739.988C353.012 736.492 355.568 734.19 358.691 733.082C361.844 731.974 365.053 732.343 368.347 734.219C371.67 736.095 373.658 738.681 374.282 741.978C374.907 745.274 374.283 748.628 372.295 752.124L372.039 752.578L372.067 752.522ZM367.126 749.111C368.404 746.837 369.029 744.734 368.943 742.83C368.858 740.898 367.893 739.42 366.018 738.368C364.201 737.345 362.44 737.288 360.708 738.198C359.004 739.107 357.499 740.699 356.221 742.944L355.965 743.399C354.716 745.615 354.119 747.69 354.204 749.651C354.29 751.612 355.255 753.09 357.101 754.141C358.919 755.165 360.679 755.221 362.383 754.284C364.087 753.346 365.564 751.783 366.842 749.566L367.098 749.111H367.126Z" fill="white"/>
<path d="M333.246 744.621L335.092 741.665C333.643 742.148 332.167 742.262 330.718 742.034C329.241 741.807 327.822 741.153 326.458 740.102C325.067 739.05 324.13 737.828 323.59 736.436C323.05 735.043 323.022 733.537 323.476 731.917C321.943 732.599 320.353 732.855 318.791 732.713C317.2 732.57 315.695 731.945 314.247 730.865C312.117 729.245 310.981 727.227 310.867 724.783C310.754 722.339 311.833 719.639 314.133 716.627L323.732 703.923L328.503 707.532L318.876 720.236C317.456 722.112 316.803 723.646 316.831 724.868C316.888 726.091 317.541 727.171 318.791 728.108C319.813 728.876 320.892 729.274 322 729.245C323.136 729.245 324.215 728.876 325.209 728.194C325.351 727.995 325.493 727.824 325.578 727.654C325.663 727.512 325.777 727.369 325.862 727.227L336.313 713.443L341.084 717.053L331.457 729.757C330.093 731.547 329.44 733.082 329.469 734.361C329.497 735.64 330.15 736.72 331.371 737.658C332.337 738.397 333.303 738.823 334.268 738.965C335.234 739.107 336.171 738.965 337.08 738.596L348.894 722.964L353.665 726.574L337.562 747.861L333.189 744.564L333.246 744.621Z" fill="white"/>
<path d="M294.793 692.583C297.52 689.826 300.36 688.234 303.342 687.808C306.323 687.382 308.965 688.32 311.265 690.622C312.344 691.702 313.111 692.81 313.537 694.032C313.963 695.254 314.133 696.505 313.991 697.841L323.107 688.632L327.367 692.839L301.41 719.156L297.804 715.603L299.735 712.79C298.258 713.074 296.838 713.017 295.532 712.648C294.225 712.278 292.976 711.511 291.84 710.402C289.511 708.1 288.602 705.372 289.114 702.217C289.625 699.063 291.386 695.993 294.396 692.952L294.765 692.583H294.793ZM298.656 697.158C296.725 699.091 295.532 701.052 295.049 703.013C294.566 704.974 295.049 706.679 296.497 708.1C297.378 708.981 298.315 709.521 299.309 709.777C300.303 710.005 301.325 709.976 302.376 709.664L310.839 701.081C311.123 700.029 311.123 699.034 310.839 698.068C310.583 697.102 309.987 696.164 309.078 695.254C307.63 693.833 306.011 693.293 304.222 693.634C302.433 694.004 300.7 695.055 298.968 696.789L298.599 697.158H298.656Z" fill="white"/>
<path d="M296.526 675.417L300.445 679.936L271.421 705.23L267.473 700.711L296.497 675.417H296.526Z" fill="white"/>
<path d="M262.674 686.444L266.394 691.133L262.276 694.402L258.556 689.712L262.674 686.444ZM288.716 665.782L292.436 670.472L271.506 687.069L267.786 682.38L288.688 665.782H288.716Z" fill="white"/>
<path d="M276.022 647.991C275.596 648.56 275.141 649.071 274.687 649.526C274.233 650.009 273.75 650.435 273.267 650.833C274.744 650.805 276.221 651.089 277.669 651.743C279.117 652.396 280.338 653.391 281.247 654.755C282.809 657.057 283.434 659.217 283.065 661.264C282.696 663.31 281.503 665.015 279.458 666.436C277.328 667.885 275.085 668.17 272.756 667.289C270.427 666.408 268.212 664.447 266.139 661.377L263.526 657.512L261.595 658.819C260.431 659.615 259.778 660.553 259.579 661.69C259.38 662.827 259.721 664.02 260.601 665.271C261.368 666.408 262.248 667.118 263.242 667.402C264.236 667.687 265.145 667.573 265.997 666.976L269.263 671.722L269.149 671.836C267.474 673.115 265.401 673.399 262.93 672.66C260.459 671.921 258.329 670.244 256.512 667.573C254.751 665.015 254.012 662.486 254.24 660.013C254.467 657.54 255.802 655.494 258.244 653.817L268.042 647.139C268.95 646.513 269.774 645.86 270.541 645.178C271.308 644.495 271.989 643.728 272.585 642.904L275.993 647.934L276.022 647.991ZM276.618 656.489C275.766 655.238 274.687 654.357 273.409 653.761C272.103 653.192 270.938 653.022 269.916 653.221L266.65 655.437L269.32 659.388C270.314 660.837 271.421 661.718 272.699 662.059C273.977 662.4 275.085 662.23 276.05 661.576C276.902 661.008 277.385 660.269 277.499 659.388C277.612 658.507 277.328 657.54 276.618 656.517V656.489Z" fill="white"/>
<path d="M244.215 647.025L247.424 644.893C245.805 644.78 244.357 644.325 243.05 643.501C241.744 642.705 240.693 641.568 239.898 640.119C238.592 637.675 238.308 635.344 239.075 633.184C239.841 631.024 241.829 629.035 245.01 627.33L259.607 619.429L262.447 624.715L247.878 632.587C246.061 633.582 244.953 634.634 244.556 635.742C244.186 636.879 244.357 638.158 245.152 639.579C245.748 640.716 246.487 641.568 247.367 642.165C248.248 642.762 249.185 643.103 250.207 643.188L267.388 633.895L270.228 639.181L246.742 651.885L244.13 647.053L244.215 647.025Z" fill="white"/>
<path d="M224.137 620.935L230.072 618.32L228.141 613.944L232.202 612.153L234.133 616.53L247.651 610.618C248.674 610.164 249.27 609.652 249.525 609.027C249.753 608.402 249.724 607.719 249.412 607.009C249.27 606.696 249.128 606.412 248.958 606.156C248.787 605.901 248.588 605.645 248.39 605.446L252.167 603.087C252.621 603.428 253.075 603.911 253.501 604.479C253.927 605.048 254.297 605.702 254.581 606.384C255.461 608.402 255.574 610.249 254.893 611.926C254.211 613.602 252.621 614.995 250.093 616.103L236.576 622.015L238.194 625.738L234.133 627.528L232.514 623.805L226.579 626.42L224.194 620.935H224.137Z" fill="white"/>
</g>
<g opacity="0.5">
<path d="M383.43 443.043V372.106H409.396C417.751 372.106 424.714 374.837 430.339 380.27C435.963 385.704 438.776 392.694 438.776 401.186V413.937C438.776 422.483 435.963 429.446 430.339 434.879C424.714 440.313 417.724 443.016 409.396 443.016H383.43V443.043ZM399.894 384.803V430.401H409.396C413.137 430.401 416.222 428.872 418.625 425.814C421.028 422.756 422.257 418.824 422.257 413.991V401.131C422.257 396.353 421.055 392.448 418.625 389.39C416.195 386.332 413.137 384.803 409.396 384.803H399.894Z" fill="white"/>
<path d="M594.166 443.043H577.756V372.106H594.166V443.043Z" fill="white"/>
<path d="M438.832 611.293L438.941 611.593C439.077 619.676 436.784 625.819 432.088 629.969C427.391 634.12 420.756 636.222 412.128 636.222C403.5 636.222 396.319 633.546 391.022 628.195C385.725 622.843 383.049 615.826 383.049 607.143V592.344C383.049 583.716 385.615 576.698 390.721 571.319C395.827 565.94 402.599 563.265 411.009 563.265C419.992 563.265 426.954 565.367 431.869 569.545C436.784 573.722 439.187 579.811 439.05 587.811L438.914 588.112H422.886C422.886 583.77 421.958 580.63 420.101 578.774C418.244 576.917 415.213 575.934 410.981 575.934C407.268 575.934 404.428 577.408 402.462 580.385C400.496 583.361 399.486 587.32 399.486 592.235V607.143C399.486 612.112 400.578 616.099 402.763 619.075C404.947 622.051 408.06 623.553 412.101 623.553C415.869 623.553 418.599 622.624 420.265 620.713C421.93 618.829 422.777 615.689 422.777 611.266H438.804L438.832 611.293Z" fill="white"/>
<path d="M597.088 616.399C597.088 613.86 596.269 611.921 594.603 610.583C592.938 609.245 589.934 607.798 585.593 606.269C576.801 603.402 570.248 600.371 565.988 597.122C561.729 593.9 559.572 589.231 559.572 583.17C559.572 577.108 562.056 572.412 567.026 568.753C571.995 565.094 578.302 563.237 585.975 563.237C594.057 563.237 600.583 565.121 605.498 568.917C610.412 572.712 612.815 578.036 612.651 584.917L612.542 585.217H596.569C596.569 581.859 595.668 579.456 593.839 577.927C592.009 576.425 589.279 575.661 585.62 575.661C582.644 575.661 580.268 576.398 578.548 577.845C576.828 579.32 575.954 581.122 575.954 583.251C575.954 585.381 576.828 586.992 578.603 588.248C580.378 589.504 583.681 591.061 588.514 592.945C596.733 595.375 602.958 598.351 607.163 601.846C611.395 605.368 613.498 610.146 613.498 616.262C613.498 622.379 611.068 627.375 606.18 630.898C601.32 634.42 594.849 636.195 586.794 636.195C578.739 636.195 571.968 634.311 566.398 630.515C560.828 626.747 558.124 620.795 558.288 612.658L558.398 612.358H574.425C574.425 616.481 575.435 619.402 577.483 621.15C579.531 622.897 582.616 623.744 586.821 623.744C590.262 623.744 592.828 623.061 594.521 621.696C596.214 620.331 597.061 618.556 597.061 616.344L597.088 616.399Z" fill="white"/>
</g>
</g>
<circle cx="498.859" cy="503.154" r="394.201" stroke="#D9D9D9" stroke-width="2.95005" stroke-dasharray="19.18 8.85"/>
<rect x="432.115" y="96.4155" width="135.702" height="36.1381" fill="white"/>
<rect x="0.669922" y="455.584" width="141.603" height="95.8767" fill="white"/>
<rect x="864.299" y="455.584" width="135.702" height="92.1891" fill="white"/>
<rect x="404.09" y="867.117" width="188.803" height="36.1381" fill="white"/>
<path d="M462.698 100.759L456.138 120.753H450.854L459.816 96.6343H463.178L462.698 100.759ZM468.148 120.753L461.571 100.759L461.041 96.6343H464.437L473.449 120.753H468.148ZM467.85 111.775V115.668H455.111V111.775H467.85Z" fill="#002839"/>
<path d="M482.792 117.357C483.377 117.357 483.896 117.247 484.349 117.026C484.801 116.794 485.155 116.474 485.409 116.065C485.674 115.646 485.812 115.154 485.823 114.591H490.312C490.301 115.85 489.964 116.971 489.302 117.954C488.639 118.926 487.75 119.693 486.635 120.256C485.519 120.809 484.271 121.085 482.891 121.085C481.499 121.085 480.285 120.853 479.247 120.389C478.22 119.925 477.364 119.285 476.679 118.467C475.994 117.639 475.481 116.678 475.138 115.585C474.796 114.481 474.625 113.299 474.625 112.04V111.56C474.625 110.29 474.796 109.108 475.138 108.015C475.481 106.91 475.994 105.949 476.679 105.132C477.364 104.304 478.22 103.658 479.247 103.194C480.274 102.73 481.477 102.498 482.858 102.498C484.327 102.498 485.613 102.78 486.717 103.343C487.833 103.906 488.705 104.713 489.335 105.762C489.975 106.8 490.301 108.031 490.312 109.456H485.823C485.812 108.859 485.685 108.318 485.442 107.832C485.21 107.346 484.868 106.96 484.415 106.673C483.973 106.375 483.427 106.226 482.775 106.226C482.079 106.226 481.51 106.375 481.069 106.673C480.627 106.96 480.285 107.358 480.042 107.866C479.799 108.362 479.628 108.931 479.528 109.572C479.44 110.201 479.396 110.864 479.396 111.56V112.04C479.396 112.736 479.44 113.404 479.528 114.044C479.617 114.685 479.782 115.254 480.025 115.751C480.279 116.248 480.627 116.64 481.069 116.927C481.51 117.214 482.085 117.357 482.792 117.357Z" fill="#002839"/>
<path d="M501.858 102.83V106.209H491.422V102.83H501.858ZM494.006 98.4068H498.777V115.353C498.777 115.872 498.843 116.27 498.976 116.546C499.119 116.822 499.329 117.015 499.605 117.126C499.881 117.225 500.229 117.275 500.649 117.275C500.947 117.275 501.212 117.264 501.444 117.241C501.687 117.208 501.891 117.175 502.057 117.142L502.073 120.654C501.665 120.786 501.223 120.891 500.748 120.969C500.273 121.046 499.749 121.085 499.175 121.085C498.125 121.085 497.209 120.913 496.425 120.571C495.652 120.218 495.055 119.654 494.636 118.881C494.216 118.108 494.006 117.092 494.006 115.833V98.4068Z" fill="#002839"/>
<path d="M509.611 102.83V120.753H504.823V102.83H509.611ZM504.525 98.1583C504.525 97.4626 504.768 96.8883 505.254 96.4355C505.74 95.9827 506.391 95.7563 507.209 95.7563C508.015 95.7563 508.661 95.9827 509.147 96.4355C509.644 96.8883 509.892 97.4626 509.892 98.1583C509.892 98.854 509.644 99.4283 509.147 99.8811C508.661 100.334 508.015 100.56 507.209 100.56C506.391 100.56 505.74 100.334 505.254 99.8811C504.768 99.4283 504.525 98.854 504.525 98.1583Z" fill="#002839"/>
<path d="M519.649 117.275L523.625 102.83H528.611L522.565 120.753H519.55L519.649 117.275ZM516.916 102.83L520.908 117.291L520.991 120.753H517.96L511.913 102.83H516.916Z" fill="#002839"/>
<path d="M538.765 121.085C537.374 121.085 536.126 120.864 535.022 120.422C533.917 119.969 532.979 119.345 532.206 118.55C531.444 117.755 530.858 116.833 530.45 115.784C530.041 114.724 529.837 113.597 529.837 112.404V111.742C529.837 110.383 530.03 109.141 530.417 108.015C530.803 106.888 531.355 105.911 532.073 105.083C532.802 104.254 533.685 103.619 534.724 103.178C535.762 102.725 536.932 102.498 538.235 102.498C539.505 102.498 540.632 102.708 541.615 103.128C542.598 103.548 543.42 104.144 544.083 104.917C544.757 105.69 545.265 106.618 545.607 107.7C545.949 108.771 546.12 109.964 546.12 111.278V113.266H531.874V110.085H541.432V109.721C541.432 109.058 541.311 108.467 541.068 107.948C540.836 107.418 540.483 106.999 540.008 106.689C539.533 106.38 538.926 106.226 538.186 106.226C537.556 106.226 537.015 106.364 536.562 106.64C536.109 106.916 535.74 107.302 535.452 107.799C535.176 108.296 534.966 108.882 534.823 109.555C534.69 110.218 534.624 110.947 534.624 111.742V112.404C534.624 113.122 534.724 113.785 534.922 114.392C535.132 115 535.425 115.524 535.8 115.966C536.187 116.408 536.651 116.75 537.192 116.993C537.744 117.236 538.368 117.357 539.064 117.357C539.925 117.357 540.726 117.192 541.466 116.86C542.217 116.518 542.863 116.005 543.404 115.32L545.723 117.838C545.347 118.379 544.834 118.898 544.182 119.395C543.542 119.892 542.769 120.301 541.863 120.621C540.958 120.93 539.925 121.085 538.765 121.085Z" fill="#002839"/>
<path d="M67.4974 470.553V494.672H62.5444V470.553H67.4974ZM74.9186 470.553V474.446H55.2391V470.553H74.9186Z" fill="#002839"/>
<path d="M84.6093 490.631V482.646C84.6093 482.072 84.5154 481.58 84.3277 481.172C84.14 480.752 83.8473 480.426 83.4497 480.194C83.0632 479.963 82.5607 479.847 81.9423 479.847C81.4122 479.847 80.9539 479.94 80.5674 480.128C80.1809 480.305 79.8827 480.564 79.6729 480.907C79.463 481.238 79.3581 481.63 79.3581 482.083H74.5873C74.5873 481.321 74.764 480.598 75.1174 479.913C75.4708 479.228 75.9843 478.626 76.658 478.107C77.3316 477.577 78.1323 477.163 79.0599 476.865C79.9986 476.567 81.0478 476.418 82.2073 476.418C83.5988 476.418 84.8357 476.649 85.918 477.113C87.0002 477.577 87.8506 478.273 88.469 479.201C89.0985 480.128 89.4132 481.288 89.4132 482.679V490.349C89.4132 491.332 89.474 492.138 89.5954 492.767C89.7169 493.386 89.8936 493.927 90.1255 494.391V494.672H85.305C85.0731 494.187 84.8964 493.579 84.775 492.85C84.6645 492.11 84.6093 491.37 84.6093 490.631ZM85.2388 483.756L85.2719 486.456H82.6049C81.9754 486.456 81.4288 486.528 80.9649 486.671C80.5011 486.815 80.1201 487.019 79.8219 487.284C79.5238 487.538 79.3029 487.837 79.1593 488.179C79.0268 488.521 78.9606 488.897 78.9606 489.305C78.9606 489.714 79.0544 490.084 79.2422 490.415C79.4299 490.735 79.7005 490.989 80.0539 491.177C80.4073 491.354 80.8214 491.442 81.2963 491.442C82.0141 491.442 82.638 491.299 83.1681 491.012C83.6982 490.724 84.1068 490.371 84.394 489.951C84.6921 489.532 84.8467 489.134 84.8578 488.759L86.1167 490.78C85.94 491.232 85.6971 491.702 85.3879 492.188C85.0897 492.674 84.7087 493.132 84.2449 493.563C83.781 493.982 83.2233 494.33 82.5718 494.606C81.9202 494.871 81.1472 495.004 80.2526 495.004C79.1152 495.004 78.0826 494.777 77.1549 494.325C76.2383 493.861 75.5095 493.226 74.9683 492.42C74.4382 491.602 74.1732 490.675 74.1732 489.637C74.1732 488.698 74.3499 487.864 74.7033 487.135C75.0567 486.406 75.5757 485.794 76.2604 485.297C76.9562 484.789 77.8231 484.408 78.8612 484.154C79.8993 483.889 81.103 483.756 82.4724 483.756H85.2388Z" fill="#002839"/>
<path d="M102.781 489.719C102.781 489.377 102.682 489.068 102.483 488.792C102.284 488.516 101.914 488.262 101.373 488.03C100.843 487.787 100.076 487.566 99.0708 487.367C98.1652 487.168 97.3204 486.92 96.5363 486.622C95.7632 486.313 95.0896 485.943 94.5153 485.512C93.9521 485.081 93.5104 484.573 93.1901 483.988C92.8698 483.392 92.7097 482.712 92.7097 481.95C92.7097 481.199 92.8698 480.493 93.1901 479.83C93.5214 479.167 93.9907 478.582 94.5981 478.074C95.2166 477.555 95.9675 477.152 96.851 476.865C97.7455 476.567 98.7505 476.418 99.8659 476.418C101.423 476.418 102.759 476.666 103.875 477.163C105.001 477.66 105.863 478.345 106.459 479.217C107.066 480.079 107.37 481.061 107.37 482.166H102.599C102.599 481.702 102.5 481.288 102.301 480.923C102.113 480.548 101.815 480.255 101.406 480.045C101.009 479.825 100.49 479.714 99.8493 479.714C99.3192 479.714 98.8609 479.808 98.4744 479.996C98.0879 480.172 97.7897 480.415 97.5799 480.725C97.3811 481.023 97.2817 481.354 97.2817 481.718C97.2817 481.995 97.3369 482.243 97.4474 482.464C97.5688 482.674 97.7621 482.867 98.0271 483.044C98.2922 483.22 98.6345 483.386 99.0542 483.541C99.4849 483.684 100.015 483.817 100.644 483.938C101.937 484.203 103.091 484.551 104.107 484.982C105.123 485.401 105.929 485.976 106.525 486.705C107.121 487.422 107.42 488.367 107.42 489.537C107.42 490.332 107.243 491.061 106.89 491.724C106.536 492.386 106.028 492.966 105.366 493.463C104.703 493.949 103.908 494.33 102.98 494.606C102.064 494.871 101.031 495.004 99.8825 495.004C98.2149 495.004 96.8013 494.706 95.6417 494.109C94.4932 493.513 93.6208 492.756 93.0244 491.84C92.4391 490.912 92.1465 489.962 92.1465 488.991H96.6688C96.6909 489.642 96.8565 490.167 97.1658 490.564C97.486 490.962 97.8891 491.249 98.375 491.426C98.872 491.602 99.4076 491.691 99.9818 491.691C100.6 491.691 101.114 491.608 101.522 491.442C101.931 491.266 102.24 491.034 102.45 490.747C102.671 490.448 102.781 490.106 102.781 489.719Z" fill="#002839"/>
<path d="M115.288 469.212V494.672H110.517V469.212H115.288ZM126.586 476.749L118.8 485.628L114.626 489.852L112.886 486.406L116.199 482.199L120.854 476.749H126.586ZM121.633 494.672L116.332 486.39L119.628 483.508L127.132 494.672H121.633Z" fill="#002839"/>
<path d="M4.93051 511.854V535.973H-0.0390625V511.854H4.93051ZM14.5383 522.158V526.034H3.57216V522.158H14.5383ZM15.6979 511.854V515.747H3.57216V511.854H15.6979Z" fill="#002839"/>
<path d="M17.1557 527.194V526.846C17.1557 525.532 17.3434 524.322 17.7189 523.218C18.0944 522.103 18.641 521.136 19.3588 520.319C20.0767 519.502 20.9601 518.867 22.0093 518.414C23.0584 517.95 24.2621 517.718 25.6205 517.718C26.9788 517.718 28.1881 517.95 29.2483 518.414C30.3085 518.867 31.1975 519.502 31.9153 520.319C32.6442 521.136 33.1963 522.103 33.5718 523.218C33.9473 524.322 34.135 525.532 34.135 526.846V527.194C34.135 528.497 33.9473 529.706 33.5718 530.821C33.1963 531.926 32.6442 532.892 31.9153 533.72C31.1975 534.538 30.314 535.173 29.2648 535.625C28.2157 536.078 27.012 536.305 25.6536 536.305C24.2953 536.305 23.086 536.078 22.0258 535.625C20.9767 535.173 20.0877 534.538 19.3588 533.72C18.641 532.892 18.0944 531.926 17.7189 530.821C17.3434 529.706 17.1557 528.497 17.1557 527.194ZM21.9264 526.846V527.194C21.9264 527.945 21.9927 528.646 22.1252 529.297C22.2577 529.949 22.4676 530.523 22.7547 531.02C23.0529 531.506 23.4394 531.887 23.9143 532.163C24.3891 532.439 24.9689 532.577 25.6536 532.577C26.3162 532.577 26.885 532.439 27.3598 532.163C27.8347 531.887 28.2157 531.506 28.5028 531.02C28.79 530.523 28.9998 529.949 29.1323 529.297C29.2759 528.646 29.3477 527.945 29.3477 527.194V526.846C29.3477 526.117 29.2759 525.432 29.1323 524.792C28.9998 524.14 28.7845 523.566 28.4863 523.069C28.1991 522.561 27.8181 522.163 27.3433 521.876C26.8684 521.589 26.2941 521.446 25.6205 521.446C24.9468 521.446 24.3726 521.589 23.8977 521.876C23.4339 522.163 23.0529 522.561 22.7547 523.069C22.4676 523.566 22.2577 524.14 22.1252 524.792C21.9927 525.432 21.9264 526.117 21.9264 526.846Z" fill="#002839"/>
<path d="M44.4717 532.577C45.057 532.577 45.5761 532.467 46.0289 532.246C46.4816 532.014 46.835 531.694 47.089 531.285C47.3541 530.866 47.4921 530.374 47.5032 529.811H51.9923C51.9813 531.07 51.6445 532.191 50.9819 533.174C50.3193 534.146 49.4303 534.913 48.3149 535.476C47.1995 536.028 45.9516 536.305 44.5711 536.305C43.1796 536.305 41.9649 536.073 40.9268 535.609C39.8997 535.145 39.0439 534.504 38.3592 533.687C37.6745 532.859 37.1609 531.898 36.8186 530.805C36.4762 529.701 36.3051 528.519 36.3051 527.26V526.78C36.3051 525.51 36.4762 524.328 36.8186 523.235C37.1609 522.13 37.6745 521.169 38.3592 520.352C39.0439 519.524 39.8997 518.878 40.9268 518.414C41.9538 517.95 43.1576 517.718 44.538 517.718C46.0068 517.718 47.2933 518 48.3977 518.563C49.5131 519.126 50.3855 519.933 51.015 520.982C51.6555 522.02 51.9813 523.251 51.9923 524.676H47.5032C47.4921 524.079 47.3651 523.538 47.1222 523.052C46.8903 522.566 46.5479 522.18 46.0951 521.893C45.6534 521.595 45.1067 521.446 44.4552 521.446C43.7594 521.446 43.1907 521.595 42.7489 521.893C42.3072 522.18 41.9649 522.577 41.7219 523.085C41.4789 523.582 41.3078 524.151 41.2084 524.792C41.12 525.421 41.0759 526.084 41.0759 526.78V527.26C41.0759 527.956 41.12 528.624 41.2084 529.264C41.2967 529.905 41.4624 530.474 41.7053 530.971C41.9593 531.467 42.3072 531.86 42.7489 532.147C43.1907 532.434 43.7649 532.577 44.4717 532.577Z" fill="#002839"/>
<path d="M65.3605 531.683V518.05H70.1313V535.973H65.6421L65.3605 531.683ZM65.8906 528.005L67.2986 527.972C67.2986 529.165 67.1606 530.275 66.8845 531.302C66.6084 532.318 66.1943 533.201 65.6421 533.952C65.0899 534.692 64.3942 535.272 63.5549 535.692C62.7156 536.1 61.7272 536.305 60.5897 536.305C59.7173 536.305 58.9111 536.183 58.1712 535.94C57.4423 535.686 56.8128 535.294 56.2827 534.764C55.7637 534.223 55.3551 533.533 55.0569 532.693C54.7698 531.843 54.6262 530.821 54.6262 529.629V518.05H59.397V529.662C59.397 530.192 59.4577 530.639 59.5792 531.004C59.7117 531.368 59.894 531.666 60.1259 531.898C60.3578 532.13 60.6284 532.296 60.9376 532.395C61.2578 532.495 61.6112 532.544 61.9978 532.544C62.9806 532.544 63.7537 532.345 64.3169 531.948C64.8911 531.55 65.2942 531.009 65.5261 530.324C65.7691 529.629 65.8906 528.856 65.8906 528.005Z" fill="#002839"/>
<path d="M83.4663 531.02C83.4663 530.678 83.3669 530.369 83.1681 530.093C82.9693 529.816 82.5994 529.562 82.0583 529.331C81.5282 529.088 80.7606 528.867 79.7557 528.668C78.8501 528.469 78.0053 528.221 77.2212 527.923C76.4482 527.613 75.7745 527.243 75.2002 526.813C74.637 526.382 74.1953 525.874 73.875 525.289C73.5548 524.692 73.3946 524.013 73.3946 523.251C73.3946 522.5 73.5548 521.793 73.875 521.131C74.2063 520.468 74.6757 519.883 75.2831 519.375C75.9015 518.856 76.6525 518.453 77.5359 518.166C78.4305 517.867 79.4354 517.718 80.5508 517.718C82.108 517.718 83.4442 517.967 84.5596 518.464C85.686 518.961 86.5474 519.645 87.1438 520.518C87.7512 521.379 88.0549 522.362 88.0549 523.466H83.2841C83.2841 523.003 83.1847 522.589 82.9859 522.224C82.7982 521.849 82.5 521.556 82.0914 521.346C81.6938 521.125 81.1748 521.015 80.5343 521.015C80.0042 521.015 79.5459 521.109 79.1593 521.296C78.7728 521.473 78.4746 521.716 78.2648 522.025C78.066 522.323 77.9666 522.655 77.9666 523.019C77.9666 523.295 78.0219 523.544 78.1323 523.765C78.2538 523.974 78.447 524.168 78.7121 524.344C78.9771 524.521 79.3195 524.687 79.7391 524.841C80.1698 524.985 80.6999 525.117 81.3294 525.239C82.6215 525.504 83.7755 525.852 84.7915 526.283C85.8075 526.702 86.6137 527.276 87.21 528.005C87.8064 528.723 88.1046 529.667 88.1046 530.838C88.1046 531.633 87.9279 532.362 87.5745 533.025C87.2211 533.687 86.7131 534.267 86.0505 534.764C85.3879 535.25 84.5927 535.631 83.6651 535.907C82.7485 536.172 81.7159 536.305 80.5674 536.305C78.8998 536.305 77.4862 536.006 76.3267 535.41C75.1782 534.814 74.3057 534.057 73.7094 533.141C73.1241 532.213 72.8314 531.263 72.8314 530.291H77.3537C77.3758 530.943 77.5415 531.467 77.8507 531.865C78.1709 532.263 78.574 532.55 79.0599 532.726C79.5569 532.903 80.0925 532.991 80.6668 532.991C81.2852 532.991 81.7987 532.909 82.2073 532.743C82.616 532.566 82.9252 532.334 83.135 532.047C83.3559 531.749 83.4663 531.407 83.4663 531.02Z" fill="#002839"/>
<path d="M99.4518 536.305C98.0603 536.305 96.8124 536.084 95.708 535.642C94.6037 535.189 93.665 534.565 92.8919 533.77C92.1299 532.975 91.5446 532.053 91.136 531.004C90.7274 529.943 90.5231 528.817 90.5231 527.624V526.962C90.5231 525.603 90.7164 524.361 91.1029 523.235C91.4894 522.108 92.0416 521.131 92.7594 520.302C93.4883 519.474 94.3717 518.839 95.4098 518.397C96.4479 517.945 97.6185 517.718 98.9217 517.718C100.192 517.718 101.318 517.928 102.301 518.348C103.284 518.767 104.107 519.364 104.769 520.137C105.443 520.91 105.951 521.838 106.293 522.92C106.636 523.991 106.807 525.184 106.807 526.498V528.486H92.5606V525.305H102.119V524.941C102.119 524.278 101.997 523.687 101.754 523.168C101.522 522.638 101.169 522.219 100.694 521.909C100.219 521.6 99.6119 521.446 98.872 521.446C98.2425 521.446 97.7014 521.584 97.2486 521.86C96.7958 522.136 96.4258 522.522 96.1387 523.019C95.8626 523.516 95.6528 524.101 95.5092 524.775C95.3767 525.438 95.3104 526.167 95.3104 526.962V527.624C95.3104 528.342 95.4098 529.005 95.6086 529.612C95.8184 530.22 96.1111 530.744 96.4866 531.186C96.8731 531.628 97.3369 531.97 97.8781 532.213C98.4302 532.456 99.0542 532.577 99.7499 532.577C100.611 532.577 101.412 532.412 102.152 532.08C102.903 531.738 103.549 531.225 104.09 530.54L106.409 533.058C106.034 533.599 105.52 534.118 104.869 534.615C104.228 535.112 103.455 535.52 102.549 535.841C101.644 536.15 100.611 536.305 99.4518 536.305Z" fill="#002839"/>
<path d="M120.109 532.064V510.529H124.913V535.973H120.589L120.109 532.064ZM108.778 527.227V526.879C108.778 525.51 108.933 524.267 109.242 523.152C109.551 522.025 110.004 521.059 110.6 520.253C111.197 519.447 111.931 518.823 112.803 518.381C113.676 517.939 114.67 517.718 115.785 517.718C116.834 517.718 117.751 517.939 118.535 518.381C119.33 518.823 120.004 519.452 120.556 520.269C121.119 521.076 121.572 522.031 121.914 523.135C122.257 524.228 122.505 525.427 122.66 526.73V527.492C122.505 528.74 122.257 529.899 121.914 530.971C121.572 532.042 121.119 532.98 120.556 533.787C120.004 534.582 119.33 535.2 118.535 535.642C117.74 536.084 116.812 536.305 115.752 536.305C114.637 536.305 113.643 536.078 112.77 535.625C111.909 535.173 111.18 534.538 110.584 533.72C109.998 532.903 109.551 531.942 109.242 530.838C108.933 529.734 108.778 528.53 108.778 527.227ZM113.549 526.879V527.227C113.549 527.967 113.604 528.657 113.714 529.297C113.836 529.938 114.029 530.507 114.294 531.004C114.57 531.49 114.924 531.871 115.354 532.147C115.796 532.412 116.332 532.544 116.961 532.544C117.778 532.544 118.452 532.362 118.982 531.998C119.512 531.622 119.915 531.109 120.191 530.457C120.479 529.805 120.644 529.054 120.688 528.204V526.034C120.655 525.338 120.556 524.714 120.39 524.162C120.236 523.599 120.004 523.119 119.694 522.721C119.396 522.323 119.021 522.014 118.568 521.793C118.126 521.573 117.602 521.462 116.994 521.462C116.376 521.462 115.846 521.606 115.404 521.893C114.962 522.169 114.603 522.55 114.327 523.036C114.062 523.522 113.864 524.096 113.731 524.759C113.61 525.41 113.549 526.117 113.549 526.879Z" fill="#002839"/>
<path d="M882.481 486.075H876.335V482.199H882.481C883.431 482.199 884.204 482.044 884.8 481.735C885.397 481.415 885.833 480.973 886.109 480.41C886.385 479.847 886.523 479.212 886.523 478.505C886.523 477.787 886.385 477.119 886.109 476.5C885.833 475.882 885.397 475.385 884.8 475.01C884.204 474.634 883.431 474.446 882.481 474.446H878.058V494.672H873.089V470.553H882.481C884.37 470.553 885.987 470.896 887.335 471.581C888.693 472.254 889.731 473.187 890.449 474.38C891.167 475.573 891.526 476.937 891.526 478.472C891.526 480.029 891.167 481.376 890.449 482.514C889.731 483.651 888.693 484.529 887.335 485.147C885.987 485.766 884.37 486.075 882.481 486.075Z" fill="#002839"/>
<path d="M902.674 495.004C901.283 495.004 900.035 494.783 898.93 494.341C897.826 493.888 896.887 493.264 896.114 492.469C895.352 491.674 894.767 490.752 894.358 489.703C893.95 488.643 893.746 487.516 893.746 486.324V485.661C893.746 484.303 893.939 483.06 894.325 481.934C894.712 480.807 895.264 479.83 895.982 479.002C896.711 478.173 897.594 477.538 898.632 477.097C899.67 476.644 900.841 476.418 902.144 476.418C903.414 476.418 904.541 476.627 905.523 477.047C906.506 477.467 907.329 478.063 907.992 478.836C908.665 479.609 909.173 480.537 909.516 481.619C909.858 482.69 910.029 483.883 910.029 485.197V487.185H895.783V484.004H905.341V483.64C905.341 482.977 905.22 482.387 904.977 481.868C904.745 481.337 904.391 480.918 903.917 480.609C903.442 480.299 902.834 480.145 902.094 480.145C901.465 480.145 900.924 480.283 900.471 480.559C900.018 480.835 899.648 481.222 899.361 481.718C899.085 482.215 898.875 482.801 898.732 483.474C898.599 484.137 898.533 484.866 898.533 485.661V486.324C898.533 487.041 898.632 487.704 898.831 488.311C899.041 488.919 899.334 489.443 899.709 489.885C900.096 490.327 900.559 490.669 901.1 490.912C901.653 491.155 902.277 491.277 902.972 491.277C903.834 491.277 904.634 491.111 905.374 490.78C906.125 490.437 906.771 489.924 907.312 489.239L909.632 491.757C909.256 492.298 908.743 492.817 908.091 493.314C907.451 493.811 906.677 494.22 905.772 494.54C904.866 494.849 903.834 495.004 902.674 495.004Z" fill="#002839"/>
<path d="M911.984 485.893V485.545C911.984 484.231 912.172 483.022 912.547 481.917C912.923 480.802 913.469 479.836 914.187 479.018C914.905 478.201 915.788 477.566 916.837 477.113C917.887 476.649 919.09 476.418 920.449 476.418C921.807 476.418 923.016 476.649 924.076 477.113C925.137 477.566 926.026 478.201 926.743 479.018C927.472 479.836 928.025 480.802 928.4 481.917C928.775 483.022 928.963 484.231 928.963 485.545V485.893C928.963 487.196 928.775 488.405 928.4 489.521C928.025 490.625 927.472 491.591 926.743 492.42C926.026 493.237 925.142 493.872 924.093 494.325C923.044 494.777 921.84 495.004 920.482 495.004C919.123 495.004 917.914 494.777 916.854 494.325C915.805 493.872 914.916 493.237 914.187 492.42C913.469 491.591 912.923 490.625 912.547 489.521C912.172 488.405 911.984 487.196 911.984 485.893ZM916.755 485.545V485.893C916.755 486.644 916.821 487.345 916.953 487.997C917.086 488.648 917.296 489.223 917.583 489.719C917.881 490.205 918.268 490.586 918.742 490.862C919.217 491.139 919.797 491.277 920.482 491.277C921.144 491.277 921.713 491.139 922.188 490.862C922.663 490.586 923.044 490.205 923.331 489.719C923.618 489.223 923.828 488.648 923.961 487.997C924.104 487.345 924.176 486.644 924.176 485.893V485.545C924.176 484.816 924.104 484.131 923.961 483.491C923.828 482.839 923.613 482.265 923.314 481.768C923.027 481.26 922.646 480.863 922.171 480.575C921.697 480.288 921.122 480.145 920.449 480.145C919.775 480.145 919.201 480.288 918.726 480.575C918.262 480.863 917.881 481.26 917.583 481.768C917.296 482.265 917.086 482.839 916.953 483.491C916.821 484.131 916.755 484.816 916.755 485.545Z" fill="#002839"/>
<path d="M936.666 480.194V501.564H931.895V476.749H936.318L936.666 480.194ZM948.013 485.512V485.86C948.013 487.163 947.859 488.372 947.549 489.488C947.251 490.603 946.81 491.575 946.224 492.403C945.639 493.22 944.91 493.861 944.038 494.325C943.176 494.777 942.182 495.004 941.056 495.004C939.963 495.004 939.013 494.783 938.207 494.341C937.4 493.899 936.721 493.281 936.169 492.486C935.628 491.68 935.192 490.747 934.86 489.686C934.529 488.626 934.275 487.489 934.098 486.274V485.363C934.275 484.06 934.529 482.867 934.86 481.785C935.192 480.691 935.628 479.747 936.169 478.952C936.721 478.146 937.395 477.522 938.19 477.08C938.996 476.638 939.94 476.418 941.023 476.418C942.16 476.418 943.16 476.633 944.021 477.064C944.893 477.494 945.622 478.113 946.208 478.919C946.804 479.725 947.251 480.686 947.549 481.801C947.859 482.917 948.013 484.154 948.013 485.512ZM943.226 485.86V485.512C943.226 484.75 943.16 484.049 943.027 483.408C942.906 482.757 942.707 482.188 942.431 481.702C942.166 481.216 941.812 480.841 941.371 480.575C940.94 480.299 940.415 480.161 939.797 480.161C939.145 480.161 938.588 480.266 938.124 480.476C937.671 480.686 937.301 480.99 937.014 481.387C936.727 481.785 936.511 482.26 936.368 482.812C936.224 483.364 936.136 483.988 936.103 484.684V486.986C936.158 487.803 936.313 488.538 936.567 489.189C936.821 489.83 937.213 490.338 937.743 490.713C938.273 491.089 938.969 491.277 939.83 491.277C940.46 491.277 940.99 491.139 941.42 490.862C941.851 490.575 942.199 490.183 942.464 489.686C942.74 489.189 942.933 488.615 943.044 487.964C943.165 487.312 943.226 486.611 943.226 485.86Z" fill="#002839"/>
<path d="M956.014 469.228V494.672H951.227V469.228H956.014Z" fill="#002839"/>
<path d="M968.206 495.004C966.815 495.004 965.567 494.783 964.463 494.341C963.358 493.888 962.419 493.264 961.646 492.469C960.884 491.674 960.299 490.752 959.891 489.703C959.482 488.643 959.278 487.516 959.278 486.324V485.661C959.278 484.303 959.471 483.06 959.857 481.934C960.244 480.807 960.796 479.83 961.514 479.002C962.243 478.173 963.126 477.538 964.164 477.097C965.202 476.644 966.373 476.418 967.676 476.418C968.946 476.418 970.073 476.627 971.055 477.047C972.038 477.467 972.861 478.063 973.524 478.836C974.197 479.609 974.705 480.537 975.048 481.619C975.39 482.69 975.561 483.883 975.561 485.197V487.185H961.315V484.004H970.873V483.64C970.873 482.977 970.752 482.387 970.509 481.868C970.277 481.337 969.924 480.918 969.449 480.609C968.974 480.299 968.366 480.145 967.626 480.145C966.997 480.145 966.456 480.283 966.003 480.559C965.55 480.835 965.18 481.222 964.893 481.718C964.617 482.215 964.407 482.801 964.264 483.474C964.131 484.137 964.065 484.866 964.065 485.661V486.324C964.065 487.041 964.164 487.704 964.363 488.311C964.573 488.919 964.866 489.443 965.241 489.885C965.628 490.327 966.091 490.669 966.633 490.912C967.185 491.155 967.809 491.277 968.504 491.277C969.366 491.277 970.166 491.111 970.906 490.78C971.657 490.437 972.303 489.924 972.845 489.239L975.164 491.757C974.788 492.298 974.275 492.817 973.623 493.314C972.983 493.811 972.21 494.22 971.304 494.54C970.398 494.849 969.366 495.004 968.206 495.004Z" fill="#002839"/>
<path d="M878.058 511.854V535.973H873.089V511.854H878.058ZM887.666 522.158V526.034H876.7V522.158H887.666ZM888.826 511.854V515.747H876.7V511.854H888.826Z" fill="#002839"/>
<path d="M890.283 527.194V526.846C890.283 525.532 890.471 524.322 890.847 523.218C891.222 522.103 891.769 521.136 892.487 520.319C893.204 519.502 894.088 518.867 895.137 518.414C896.186 517.95 897.39 517.718 898.748 517.718C900.107 517.718 901.316 517.95 902.376 518.414C903.436 518.867 904.325 519.502 905.043 520.319C905.772 521.136 906.324 522.103 906.7 523.218C907.075 524.322 907.263 525.532 907.263 526.846V527.194C907.263 528.497 907.075 529.706 906.7 530.821C906.324 531.926 905.772 532.892 905.043 533.72C904.325 534.538 903.442 535.173 902.393 535.625C901.343 536.078 900.14 536.305 898.781 536.305C897.423 536.305 896.214 536.078 895.154 535.625C894.104 535.173 893.215 534.538 892.487 533.72C891.769 532.892 891.222 531.926 890.847 530.821C890.471 529.706 890.283 528.497 890.283 527.194ZM895.054 526.846V527.194C895.054 527.945 895.12 528.646 895.253 529.297C895.385 529.949 895.595 530.523 895.882 531.02C896.181 531.506 896.567 531.887 897.042 532.163C897.517 532.439 898.097 532.577 898.781 532.577C899.444 532.577 900.013 532.439 900.488 532.163C900.962 531.887 901.343 531.506 901.631 531.02C901.918 530.523 902.128 529.949 902.26 529.297C902.404 528.646 902.475 527.945 902.475 527.194V526.846C902.475 526.117 902.404 525.432 902.26 524.792C902.128 524.14 901.912 523.566 901.614 523.069C901.327 522.561 900.946 522.163 900.471 521.876C899.996 521.589 899.422 521.446 898.748 521.446C898.075 521.446 897.5 521.589 897.025 521.876C896.562 522.163 896.181 522.561 895.882 523.069C895.595 523.566 895.385 524.14 895.253 524.792C895.12 525.432 895.054 526.117 895.054 526.846Z" fill="#002839"/>
<path d="M917.599 532.577C918.185 532.577 918.704 532.467 919.157 532.246C919.609 532.014 919.963 531.694 920.217 531.285C920.482 530.866 920.62 530.374 920.631 529.811H925.12C925.109 531.07 924.772 532.191 924.11 533.174C923.447 534.146 922.558 534.913 921.443 535.476C920.327 536.028 919.079 536.305 917.699 536.305C916.307 536.305 915.093 536.073 914.055 535.609C913.027 535.145 912.172 534.504 911.487 533.687C910.802 532.859 910.289 531.898 909.946 530.805C909.604 529.701 909.433 528.519 909.433 527.26V526.78C909.433 525.51 909.604 524.328 909.946 523.235C910.289 522.13 910.802 521.169 911.487 520.352C912.172 519.524 913.027 518.878 914.055 518.414C915.082 517.95 916.285 517.718 917.666 517.718C919.135 517.718 920.421 518 921.525 518.563C922.641 519.126 923.513 519.933 924.143 520.982C924.783 522.02 925.109 523.251 925.12 524.676H920.631C920.62 524.079 920.493 523.538 920.25 523.052C920.018 522.566 919.676 522.18 919.223 521.893C918.781 521.595 918.234 521.446 917.583 521.446C916.887 521.446 916.318 521.595 915.877 521.893C915.435 522.18 915.093 522.577 914.85 523.085C914.607 523.582 914.436 524.151 914.336 524.792C914.248 525.421 914.204 526.084 914.204 526.78V527.26C914.204 527.956 914.248 528.624 914.336 529.264C914.424 529.905 914.59 530.474 914.833 530.971C915.087 531.467 915.435 531.86 915.877 532.147C916.318 532.434 916.893 532.577 917.599 532.577Z" fill="#002839"/>
<path d="M938.488 531.683V518.05H943.259V535.973H938.77L938.488 531.683ZM939.018 528.005L940.426 527.972C940.426 529.165 940.288 530.275 940.012 531.302C939.736 532.318 939.322 533.201 938.77 533.952C938.218 534.692 937.522 535.272 936.683 535.692C935.843 536.1 934.855 536.305 933.717 536.305C932.845 536.305 932.039 536.183 931.299 535.94C930.57 535.686 929.941 535.294 929.41 534.764C928.891 534.223 928.483 533.533 928.185 532.693C927.898 531.843 927.754 530.821 927.754 529.629V518.05H932.525V529.662C932.525 530.192 932.585 530.639 932.707 531.004C932.839 531.368 933.022 531.666 933.254 531.898C933.486 532.13 933.756 532.296 934.065 532.395C934.386 532.495 934.739 532.544 935.125 532.544C936.108 532.544 936.881 532.345 937.445 531.948C938.019 531.55 938.422 531.009 938.654 530.324C938.897 529.629 939.018 528.856 939.018 528.005Z" fill="#002839"/>
<path d="M956.594 531.02C956.594 530.678 956.495 530.369 956.296 530.093C956.097 529.816 955.727 529.562 955.186 529.331C954.656 529.088 953.888 528.867 952.883 528.668C951.978 528.469 951.133 528.221 950.349 527.923C949.576 527.613 948.902 527.243 948.328 526.813C947.765 526.382 947.323 525.874 947.003 525.289C946.683 524.692 946.522 524.013 946.522 523.251C946.522 522.5 946.683 521.793 947.003 521.131C947.334 520.468 947.803 519.883 948.411 519.375C949.029 518.856 949.78 518.453 950.664 518.166C951.558 517.867 952.563 517.718 953.679 517.718C955.236 517.718 956.572 517.967 957.687 518.464C958.814 518.961 959.675 519.645 960.272 520.518C960.879 521.379 961.183 522.362 961.183 523.466H956.412C956.412 523.003 956.312 522.589 956.114 522.224C955.926 521.849 955.628 521.556 955.219 521.346C954.822 521.125 954.303 521.015 953.662 521.015C953.132 521.015 952.674 521.109 952.287 521.296C951.901 521.473 951.602 521.716 951.393 522.025C951.194 522.323 951.094 522.655 951.094 523.019C951.094 523.295 951.15 523.544 951.26 523.765C951.382 523.974 951.575 524.168 951.84 524.344C952.105 524.521 952.447 524.687 952.867 524.841C953.298 524.985 953.828 525.117 954.457 525.239C955.749 525.504 956.903 525.852 957.919 526.283C958.935 526.702 959.741 527.276 960.338 528.005C960.934 528.723 961.232 529.667 961.232 530.838C961.232 531.633 961.056 532.362 960.702 533.025C960.349 533.687 959.841 534.267 959.178 534.764C958.516 535.25 957.72 535.631 956.793 535.907C955.876 536.172 954.844 536.305 953.695 536.305C952.028 536.305 950.614 536.006 949.454 535.41C948.306 534.814 947.433 534.057 946.837 533.141C946.252 532.213 945.959 531.263 945.959 530.291H950.481C950.504 530.943 950.669 531.467 950.978 531.865C951.299 532.263 951.702 532.55 952.188 532.726C952.685 532.903 953.22 532.991 953.795 532.991C954.413 532.991 954.926 532.909 955.335 532.743C955.744 532.566 956.053 532.334 956.263 532.047C956.484 531.749 956.594 531.407 956.594 531.02Z" fill="#002839"/>
<path d="M972.579 536.305C971.188 536.305 969.94 536.084 968.836 535.642C967.731 535.189 966.793 534.565 966.02 533.77C965.258 532.975 964.672 532.053 964.264 531.004C963.855 529.943 963.651 528.817 963.651 527.624V526.962C963.651 525.603 963.844 524.361 964.231 523.235C964.617 522.108 965.169 521.131 965.887 520.302C966.616 519.474 967.499 518.839 968.538 518.397C969.576 517.945 970.746 517.718 972.049 517.718C973.319 517.718 974.446 517.928 975.429 518.348C976.412 518.767 977.234 519.364 977.897 520.137C978.571 520.91 979.079 521.838 979.421 522.92C979.763 523.991 979.934 525.184 979.934 526.498V528.486H965.688V525.305H975.247V524.941C975.247 524.278 975.125 523.687 974.882 523.168C974.65 522.638 974.297 522.219 973.822 521.909C973.347 521.6 972.74 521.446 972 521.446C971.37 521.446 970.829 521.584 970.376 521.86C969.924 522.136 969.554 522.522 969.266 523.019C968.99 523.516 968.781 524.101 968.637 524.775C968.504 525.438 968.438 526.167 968.438 526.962V527.624C968.438 528.342 968.538 529.005 968.736 529.612C968.946 530.22 969.239 530.744 969.614 531.186C970.001 531.628 970.465 531.97 971.006 532.213C971.558 532.456 972.182 532.577 972.878 532.577C973.739 532.577 974.54 532.412 975.28 532.08C976.031 531.738 976.677 531.225 977.218 530.54L979.537 533.058C979.161 533.599 978.648 534.118 977.996 534.615C977.356 535.112 976.583 535.52 975.677 535.841C974.772 536.15 973.739 536.305 972.579 536.305Z" fill="#002839"/>
<path d="M993.236 532.064V510.529H998.04V535.973H993.717L993.236 532.064ZM981.906 527.227V526.879C981.906 525.51 982.06 524.267 982.37 523.152C982.679 522.025 983.132 521.059 983.728 520.253C984.324 519.447 985.059 518.823 985.931 518.381C986.804 517.939 987.797 517.718 988.913 517.718C989.962 517.718 990.879 517.939 991.663 518.381C992.458 518.823 993.131 519.452 993.684 520.269C994.247 521.076 994.7 522.031 995.042 523.135C995.384 524.228 995.633 525.427 995.787 526.73V527.492C995.633 528.74 995.384 529.899 995.042 530.971C994.7 532.042 994.247 532.98 993.684 533.787C993.131 534.582 992.458 535.2 991.663 535.642C990.868 536.084 989.94 536.305 988.88 536.305C987.764 536.305 986.77 536.078 985.898 535.625C985.037 535.173 984.308 534.538 983.711 533.72C983.126 532.903 982.679 531.942 982.37 530.838C982.06 529.734 981.906 528.53 981.906 527.227ZM986.677 526.879V527.227C986.677 527.967 986.732 528.657 986.842 529.297C986.964 529.938 987.157 530.507 987.422 531.004C987.698 531.49 988.051 531.871 988.482 532.147C988.924 532.412 989.459 532.544 990.089 532.544C990.906 532.544 991.58 532.362 992.11 531.998C992.64 531.622 993.043 531.109 993.319 530.457C993.606 529.805 993.772 529.054 993.816 528.204V526.034C993.783 525.338 993.684 524.714 993.518 524.162C993.363 523.599 993.131 523.119 992.822 522.721C992.524 522.323 992.149 522.014 991.696 521.793C991.254 521.573 990.729 521.462 990.122 521.462C989.504 521.462 988.974 521.606 988.532 521.893C988.09 522.169 987.731 522.55 987.455 523.036C987.19 523.522 986.991 524.096 986.859 524.759C986.737 525.41 986.677 526.117 986.677 526.879Z" fill="#002839"/>
<path d="M424.163 879.136H433.158C435.002 879.136 436.587 879.412 437.912 879.964C439.248 880.516 440.275 881.333 440.993 882.416C441.711 883.498 442.07 884.829 442.07 886.408C442.07 887.7 441.849 888.81 441.407 889.738C440.977 890.654 440.364 891.422 439.568 892.04C438.784 892.648 437.862 893.133 436.802 893.498L435.228 894.326H427.41L427.376 890.45H433.191C434.063 890.45 434.787 890.295 435.361 889.986C435.935 889.677 436.366 889.246 436.653 888.694C436.951 888.142 437.1 887.501 437.1 886.772C437.1 885.999 436.957 885.331 436.67 884.768C436.382 884.205 435.946 883.774 435.361 883.476C434.776 883.178 434.041 883.029 433.158 883.029H429.132V903.255H424.163V879.136ZM437.647 903.255L432.147 892.504L437.398 892.471L442.964 903.023V903.255H437.647Z" fill="#002839"/>
<path d="M453.848 903.586C452.456 903.586 451.208 903.365 450.104 902.923C449 902.471 448.061 901.847 447.288 901.052C446.526 900.256 445.941 899.334 445.532 898.285C445.123 897.225 444.919 896.099 444.919 894.906V894.243C444.919 892.885 445.112 891.643 445.499 890.516C445.885 889.39 446.438 888.412 447.155 887.584C447.884 886.756 448.768 886.121 449.806 885.679C450.844 885.226 452.015 885 453.318 885C454.588 885 455.714 885.21 456.697 885.629C457.68 886.049 458.503 886.645 459.165 887.418C459.839 888.191 460.347 889.119 460.689 890.201C461.032 891.273 461.203 892.465 461.203 893.779V895.767H446.957V892.587H456.515V892.222C456.515 891.56 456.393 890.969 456.15 890.45C455.918 889.92 455.565 889.5 455.09 889.191C454.615 888.882 454.008 888.727 453.268 888.727C452.638 888.727 452.097 888.865 451.645 889.141C451.192 889.417 450.822 889.804 450.535 890.301C450.259 890.798 450.049 891.383 449.905 892.057C449.773 892.719 449.706 893.448 449.706 894.243V894.906C449.706 895.624 449.806 896.286 450.005 896.894C450.214 897.501 450.507 898.026 450.883 898.467C451.269 898.909 451.733 899.252 452.274 899.494C452.826 899.737 453.45 899.859 454.146 899.859C455.007 899.859 455.808 899.693 456.548 899.362C457.299 899.02 457.945 898.506 458.486 897.821L460.805 900.339C460.43 900.88 459.916 901.399 459.265 901.896C458.624 902.393 457.851 902.802 456.945 903.122C456.04 903.431 455.007 903.586 453.848 903.586Z" fill="#002839"/>
<path d="M469.999 903.255H465.195V883.741C465.195 882.383 465.46 881.24 465.99 880.312C466.531 879.373 467.288 878.666 468.259 878.192C469.242 877.706 470.407 877.463 471.755 877.463C472.196 877.463 472.622 877.496 473.03 877.562C473.439 877.617 473.836 877.689 474.223 877.777L474.173 881.372C473.963 881.317 473.743 881.278 473.511 881.256C473.279 881.234 473.008 881.223 472.699 881.223C472.125 881.223 471.633 881.322 471.225 881.521C470.827 881.709 470.523 881.991 470.314 882.366C470.104 882.741 469.999 883.2 469.999 883.741V903.255ZM473.577 885.331V888.711H462.528V885.331H473.577Z" fill="#002839"/>
<path d="M481.114 877.811V903.255H476.327V877.811H481.114Z" fill="#002839"/>
<path d="M493.306 903.586C491.915 903.586 490.667 903.365 489.562 902.923C488.458 902.471 487.519 901.847 486.746 901.052C485.984 900.256 485.399 899.334 484.99 898.285C484.582 897.225 484.377 896.099 484.377 894.906V894.243C484.377 892.885 484.571 891.643 484.957 890.516C485.344 889.39 485.896 888.412 486.614 887.584C487.343 886.756 488.226 886.121 489.264 885.679C490.302 885.226 491.473 885 492.776 885C494.046 885 495.172 885.21 496.155 885.629C497.138 886.049 497.961 886.645 498.624 887.418C499.297 888.191 499.805 889.119 500.148 890.201C500.49 891.273 500.661 892.465 500.661 893.779V895.767H486.415V892.587H495.973V892.222C495.973 891.56 495.852 890.969 495.609 890.45C495.377 889.92 495.023 889.5 494.549 889.191C494.074 888.882 493.466 888.727 492.726 888.727C492.097 888.727 491.556 888.865 491.103 889.141C490.65 889.417 490.28 889.804 489.993 890.301C489.717 890.798 489.507 891.383 489.364 892.057C489.231 892.719 489.165 893.448 489.165 894.243V894.906C489.165 895.624 489.264 896.286 489.463 896.894C489.673 897.501 489.965 898.026 490.341 898.467C490.727 898.909 491.191 899.252 491.732 899.494C492.285 899.737 492.909 899.859 493.604 899.859C494.466 899.859 495.266 899.693 496.006 899.362C496.757 899.02 497.403 898.506 497.944 897.821L500.264 900.339C499.888 900.88 499.375 901.399 498.723 901.896C498.082 902.393 497.309 902.802 496.404 903.122C495.498 903.431 494.466 903.586 493.306 903.586Z" fill="#002839"/>
<path d="M510.782 899.859C511.368 899.859 511.887 899.748 512.34 899.528C512.792 899.296 513.146 898.975 513.4 898.567C513.665 898.147 513.803 897.656 513.814 897.093H518.303C518.292 898.351 517.955 899.472 517.293 900.455C516.63 901.427 515.741 902.195 514.626 902.758C513.51 903.31 512.262 903.586 510.882 903.586C509.49 903.586 508.276 903.354 507.237 902.89C506.21 902.427 505.355 901.786 504.67 900.969C503.985 900.141 503.472 899.18 503.129 898.086C502.787 896.982 502.616 895.8 502.616 894.541V894.061C502.616 892.791 502.787 891.609 503.129 890.516C503.472 889.412 503.985 888.451 504.67 887.634C505.355 886.805 506.21 886.159 507.237 885.696C508.265 885.232 509.468 885 510.849 885C512.317 885 513.604 885.281 514.708 885.845C515.824 886.408 516.696 887.214 517.326 888.263C517.966 889.301 518.292 890.533 518.303 891.957H513.814C513.803 891.361 513.676 890.82 513.433 890.334C513.201 889.848 512.859 889.461 512.406 889.174C511.964 888.876 511.417 888.727 510.766 888.727C510.07 888.727 509.501 888.876 509.06 889.174C508.618 889.461 508.276 889.859 508.033 890.367C507.79 890.864 507.618 891.433 507.519 892.073C507.431 892.703 507.387 893.365 507.387 894.061V894.541C507.387 895.237 507.431 895.905 507.519 896.546C507.607 897.186 507.773 897.755 508.016 898.252C508.27 898.749 508.618 899.141 509.06 899.428C509.501 899.715 510.076 899.859 510.782 899.859Z" fill="#002839"/>
<path d="M529.849 885.331V888.711H519.413V885.331H529.849ZM521.997 880.908H526.768V897.855C526.768 898.374 526.834 898.771 526.967 899.047C527.11 899.323 527.32 899.517 527.596 899.627C527.872 899.726 528.22 899.776 528.64 899.776C528.938 899.776 529.203 899.765 529.435 899.743C529.678 899.71 529.882 899.677 530.048 899.644L530.064 903.155C529.656 903.288 529.214 903.393 528.739 903.47C528.264 903.547 527.74 903.586 527.165 903.586C526.116 903.586 525.2 903.415 524.416 903.073C523.643 902.719 523.046 902.156 522.627 901.383C522.207 900.61 521.997 899.594 521.997 898.335V880.908Z" fill="#002839"/>
<path d="M537.602 885.331V903.255H532.814V885.331H537.602ZM532.516 880.66C532.516 879.964 532.759 879.39 533.245 878.937C533.731 878.484 534.382 878.258 535.2 878.258C536.006 878.258 536.652 878.484 537.138 878.937C537.635 879.39 537.883 879.964 537.883 880.66C537.883 881.356 537.635 881.93 537.138 882.383C536.652 882.835 536.006 883.062 535.2 883.062C534.382 883.062 533.731 882.835 533.245 882.383C532.759 881.93 532.516 881.356 532.516 880.66Z" fill="#002839"/>
<path d="M547.64 899.776L551.616 885.331H556.602L550.556 903.255H547.541L547.64 899.776ZM544.907 885.331L548.899 899.793L548.982 903.255H545.95L539.904 885.331H544.907Z" fill="#002839"/>
<path d="M566.756 903.586C565.365 903.586 564.117 903.365 563.013 902.923C561.908 902.471 560.97 901.847 560.197 901.052C559.435 900.256 558.849 899.334 558.441 898.285C558.032 897.225 557.828 896.099 557.828 894.906V894.243C557.828 892.885 558.021 891.643 558.408 890.516C558.794 889.39 559.346 888.412 560.064 887.584C560.793 886.756 561.676 886.121 562.714 885.679C563.753 885.226 564.923 885 566.226 885C567.496 885 568.623 885.21 569.606 885.629C570.588 886.049 571.411 886.645 572.074 887.418C572.747 888.191 573.255 889.119 573.598 890.201C573.94 891.273 574.111 892.465 574.111 893.779V895.767H559.865V892.587H569.423V892.222C569.423 891.56 569.302 890.969 569.059 890.45C568.827 889.92 568.474 889.5 567.999 889.191C567.524 888.882 566.917 888.727 566.177 888.727C565.547 888.727 565.006 888.865 564.553 889.141C564.1 889.417 563.73 889.804 563.443 890.301C563.167 890.798 562.957 891.383 562.814 892.057C562.681 892.719 562.615 893.448 562.615 894.243V894.906C562.615 895.624 562.714 896.286 562.913 896.894C563.123 897.501 563.416 898.026 563.791 898.467C564.178 898.909 564.642 899.252 565.183 899.494C565.735 899.737 566.359 899.859 567.055 899.859C567.916 899.859 568.717 899.693 569.457 899.362C570.207 899.02 570.854 898.506 571.395 897.821L573.714 900.339C573.338 900.88 572.825 901.399 572.173 901.896C571.533 902.393 570.76 902.802 569.854 903.122C568.949 903.431 567.916 903.586 566.756 903.586Z" fill="#002839"/>
</g>
<defs>
<filter id="filter0_d_1195_740" x="625.607" y="632.837" width="137.823" height="136.483" filterUnits="userSpaceOnUse" color-interpolation-filters="sRGB">
<feFlood flood-opacity="0" result="BackgroundImageFix"/>
<feColorMatrix in="SourceAlpha" type="matrix" values="0 0 0 0 0 0 0 0 0 0 0 0 0 0 0 0 0 0 127 0" result="hardAlpha"/>
<feOffset dy="3.68757"/>
<feGaussianBlur stdDeviation="3.68757"/>
<feComposite in2="hardAlpha" operator="out"/>
<feColorMatrix type="matrix" values="0 0 0 0 0 0 0 0 0 0 0 0 0 0 0 0 0 0 0.16 0"/>
<feBlend mode="normal" in2="BackgroundImageFix" result="effect1_dropShadow_1195_740"/>
<feBlend mode="normal" in="SourceGraphic" in2="effect1_dropShadow_1195_740" result="shape"/>
</filter>
<filter id="filter1_d_1195_740" x="249.985" y="254.252" width="266.29" height="266.318" filterUnits="userSpaceOnUse" color-interpolation-filters="sRGB">
<feFlood flood-opacity="0" result="BackgroundImageFix"/>
<feColorMatrix in="SourceAlpha" type="matrix" values="0 0 0 0 0 0 0 0 0 0 0 0 0 0 0 0 0 0 127 0" result="hardAlpha"/>
<feOffset/>
<feGaussianBlur stdDeviation="11.4315"/>
<feComposite in2="hardAlpha" operator="out"/>
<feColorMatrix type="matrix" values="0 0 0 0 0.68 0 0 0 0 0.132909 0 0 0 0 0.132909 0 0 0 1 0"/>
<feBlend mode="normal" in2="BackgroundImageFix" result="effect1_dropShadow_1195_740"/>
<feBlend mode="normal" in="SourceGraphic" in2="effect1_dropShadow_1195_740" result="shape"/>
</filter>
<filter id="filter2_d_1195_740" x="481.471" y="254.252" width="266.318" height="266.318" filterUnits="userSpaceOnUse" color-interpolation-filters="sRGB">
<feFlood flood-opacity="0" result="BackgroundImageFix"/>
<feColorMatrix in="SourceAlpha" type="matrix" values="0 0 0 0 0 0 0 0 0 0 0 0 0 0 0 0 0 0 127 0" result="hardAlpha"/>
<feOffset/>
<feGaussianBlur stdDeviation="11.4315"/>
<feComposite in2="hardAlpha" operator="out"/>
<feColorMatrix type="matrix" values="0 0 0 0 0.86 0 0 0 0 0.617177 0 0 0 0 0.0910588 0 0 0 1 0"/>
<feBlend mode="normal" in2="BackgroundImageFix" result="effect1_dropShadow_1195_740"/>
<feBlend mode="normal" in="SourceGraphic" in2="effect1_dropShadow_1195_740" result="shape"/>
</filter>
<filter id="filter3_d_1195_740" x="481.471" y="485.766" width="266.318" height="266.318" filterUnits="userSpaceOnUse" color-interpolation-filters="sRGB">
<feFlood flood-opacity="0" result="BackgroundImageFix"/>
<feColorMatrix in="SourceAlpha" type="matrix" values="0 0 0 0 0 0 0 0 0 0 0 0 0 0 0 0 0 0 127 0" result="hardAlpha"/>
<feOffset/>
<feGaussianBlur stdDeviation="11.4315"/>
<feComposite in2="hardAlpha" operator="out"/>
<feColorMatrix type="matrix" values="0 0 0 0 0.448808 0 0 0 0 0.61 0 0 0 0 0.278135 0 0 0 1 0"/>
<feBlend mode="normal" in2="BackgroundImageFix" result="effect1_dropShadow_1195_740"/>
<feBlend mode="normal" in="SourceGraphic" in2="effect1_dropShadow_1195_740" result="shape"/>
</filter>
<filter id="filter4_d_1195_740" x="249.985" y="485.766" width="266.29" height="266.318" filterUnits="userSpaceOnUse" color-interpolation-filters="sRGB">
<feFlood flood-opacity="0" result="BackgroundImageFix"/>
<feColorMatrix in="SourceAlpha" type="matrix" values="0 0 0 0 0 0 0 0 0 0 0 0 0 0 0 0 0 0 127 0" result="hardAlpha"/>
<feOffset/>
<feGaussianBlur stdDeviation="11.4315"/>
<feComposite in2="hardAlpha" operator="out"/>
<feColorMatrix type="matrix" values="0 0 0 0 0.0147321 0 0 0 0 0.406607 0 0 0 0 0.66 0 0 0 1 0"/>
<feBlend mode="normal" in2="BackgroundImageFix" result="effect1_dropShadow_1195_740"/>
<feBlend mode="normal" in="SourceGraphic" in2="effect1_dropShadow_1195_740" result="shape"/>
</filter>
<filter id="filter5_d_1195_740" x="213.812" y="224.743" width="191.754" height="186.591" filterUnits="userSpaceOnUse" color-interpolation-filters="sRGB">
<feFlood flood-opacity="0" result="BackgroundImageFix"/>
<feColorMatrix in="SourceAlpha" type="matrix" values="0 0 0 0 0 0 0 0 0 0 0 0 0 0 0 0 0 0 127 0" result="hardAlpha"/>
<feOffset dy="3.68757"/>
<feGaussianBlur stdDeviation="3.68757"/>
<feComposite in2="hardAlpha" operator="out"/>
<feColorMatrix type="matrix" values="0 0 0 0 0 0 0 0 0 0 0 0 0 0 0 0 0 0 0.16 0"/>
<feBlend mode="normal" in2="BackgroundImageFix" result="effect1_dropShadow_1195_740"/>
<feBlend mode="normal" in="SourceGraphic" in2="effect1_dropShadow_1195_740" result="shape"/>
</filter>
<filter id="filter6_d_1195_740" x="592.894" y="220.318" width="195.442" height="194.703" filterUnits="userSpaceOnUse" color-interpolation-filters="sRGB">
<feFlood flood-opacity="0" result="BackgroundImageFix"/>
<feColorMatrix in="SourceAlpha" type="matrix" values="0 0 0 0 0 0 0 0 0 0 0 0 0 0 0 0 0 0 127 0" result="hardAlpha"/>
<feOffset dy="3.68757"/>
<feGaussianBlur stdDeviation="3.68757"/>
<feComposite in2="hardAlpha" operator="out"/>
<feColorMatrix type="matrix" values="0 0 0 0 0 0 0 0 0 0 0 0 0 0 0 0 0 0 0.16 0"/>
<feBlend mode="normal" in2="BackgroundImageFix" result="effect1_dropShadow_1195_740"/>
<feBlend mode="normal" in="SourceGraphic" in2="effect1_dropShadow_1195_740" result="shape"/>
</filter>
<filter id="filter7_d_1195_740" x="216.762" y="599.399" width="193.229" height="193.966" filterUnits="userSpaceOnUse" color-interpolation-filters="sRGB">
<feFlood flood-opacity="0" result="BackgroundImageFix"/>
<feColorMatrix in="SourceAlpha" type="matrix" values="0 0 0 0 0 0 0 0 0 0 0 0 0 0 0 0 0 0 127 0" result="hardAlpha"/>
<feOffset dy="3.68757"/>
<feGaussianBlur stdDeviation="3.68757"/>
<feComposite in2="hardAlpha" operator="out"/>
<feColorMatrix type="matrix" values="0 0 0 0 0 0 0 0 0 0 0 0 0 0 0 0 0 0 0.16 0"/>
<feBlend mode="normal" in2="BackgroundImageFix" result="effect1_dropShadow_1195_740"/>
<feBlend mode="normal" in="SourceGraphic" in2="effect1_dropShadow_1195_740" result="shape"/>
</filter>
<clipPath id="clip0_1195_740">
<rect width="1000" height="1000" fill="white"/>
</clipPath>
</defs>
</svg>
